<svg xmlns="http://www.w3.org/2000/svg" width="50" height="50" viewBox="0 0 50 50">
  <defs>
    <style>
      .cls-1 {
        fill: #e3f1ff;
      }

      .cls-2, .cls-3 {
        fill: #0080ff;
        fill-rule: evenodd;
      }

      .cls-3 {
        opacity: 0.5;
      }
    </style>
  </defs>
  <circle class="cls-1" cx="25" cy="25" r="25"/>
  <path class="cls-2" d="M18.841,15.515s-0.044-1.43.984-1.392,1.911,1.624,4.921,1.624,3.691-1.624,3.691-1.624a1.009,1.009,0,0,1,1.23.232c0.529,0.613.246,0.7,0.246,0.7a4.743,4.743,0,0,1-4.675,2.784A10.812,10.812,0,0,1,18.841,15.515Z"/>
  <path class="cls-2" d="M38.032,17.835L40,18.763,38.032,24.1l-2.46-1.16Z"/>
  <path class="cls-2" d="M11.706,17.6L9,18.531,11.214,24.1l2.706-1.392Z"/>
  <path class="cls-3" d="M10.722,18.067L18.6,15.051s3.076,2.32,6.151,2.32a8.6,8.6,0,0,0,5.413-2.32l8.365,3.016L36.556,23.4l-3.154-.7L32.373,35h-15.5l-1.23-12.99L12.691,23.4Z"/>
</svg>
