<svg xmlns="http://www.w3.org/2000/svg" width="50" height="50" viewBox="0 0 50 50">
  <defs>
    <style>
      .cls-1, .cls-3 {
        fill: #ff3f3f;
      }

      .cls-1 {
        opacity: 0.1;
      }

      .cls-2 {
        fill: #ff9797;
      }

      .cls-2, .cls-3, .cls-4 {
        fill-rule: evenodd;
      }

      .cls-4 {
        fill: #cb1b1b;
      }
    </style>
  </defs>
  <circle class="cls-1" cx="25" cy="25" r="25"/>
  <path id="Rounded_Rectangle_4" data-name="Rounded Rectangle 4" class="cls-2" d="M15.533,15.236H33.422a1.527,1.527,0,0,1,1.533,1.521V32.479A1.527,1.527,0,0,1,33.422,34H15.533A1.527,1.527,0,0,1,14,32.479V16.758A1.527,1.527,0,0,1,15.533,15.236Z"/>
  <path id="Rounded_Rectangle_5" data-name="Rounded Rectangle 5" class="cls-3" d="M29.806,23.873H35a2,2,0,0,1,2,2v0.541a2,2,0,0,1-2,2H29.806a2,2,0,0,1-2-2V25.873A2,2,0,0,1,29.806,23.873Z"/>
  <path class="cls-4" d="M17.578,16.251l9.711-4.043s2.126-.254,2.555,1.507c0.4,1.628-7.667,4.564-7.667,4.564H18.089S16.422,17.4,17.578,16.251Z"/>
  <path class="cls-3" d="M18.6,18.279H31.889l-1.533-4.057a1.092,1.092,0,0,0-1.533-.507C27.774,14.243,18.6,18.279,18.6,18.279Z"/>
</svg>
