<svg xmlns="http://www.w3.org/2000/svg" width="50" height="50" viewBox="0 0 50 50">
  <defs>
    <style>
      .cls-1 {
        fill: #e7faf0;
      }

      .cls-2 {
        fill: #b0ebca;
      }

      .cls-2, .cls-3 {
        fill-rule: evenodd;
      }

      .cls-3 {
        fill: #18d26b;
      }
    </style>
  </defs>
  <circle class="cls-1" cx="25" cy="25" r="25"/>
  <path class="cls-2" d="M17.38,17.484S18.855,14,25.883,14,34,17.484,34,17.484V35.29S31.765,38,26.656,38a21.171,21.171,0,0,1-9.276-2.323V17.484Z"/>
  <path class="cls-3" d="M25.7,15.6c3.712,0,6.72.9,6.72,2s-3.009,2-6.72,2-6.72-.9-6.72-2S21.987,15.6,25.7,15.6Z"/>
  <path class="cls-3" d="M25.11,25.226s-3.679,4.755-5.8,6.194-2.62,1.77-3.092,1.548,1.159-1.935,1.159-1.935V28.71s-2.747,3.063-2.319,4.645,2.552,0.837,4.252-.387a33.032,33.032,0,0,0,6.957-7.355Z"/>
  <path class="cls-3" d="M26.279,22.9a1.55,1.55,0,1,1-1.544,1.55A1.547,1.547,0,0,1,26.279,22.9Z"/>
</svg>
