<svg xmlns="http://www.w3.org/2000/svg" width="140" height="48" viewBox="0 0 140 48">
  <defs>
    <style>
      .cls-1 {
        fill: #263a5b;
        fill-rule: evenodd;
      }
    </style>
  </defs>
  <path id="Jennifer_C" data-name="Jennifer C" class="cls-1" d="M5.731,20.517a1.068,1.068,0,0,0-.248.708q0.047,0.325,1.063.322a0.934,0.934,0,0,1,1.122.728q0.128,0.873.2,1.93T7.913,26.51q-0.032,1.063-.072,2.136T7.787,30.758a4.085,4.085,0,0,0,.011.569,1.313,1.313,0,0,1-.013.406q-0.094.781-.177,1.343t-0.17.969A20,20,0,0,1,7.3,36.159q-0.132,1.16-.319,2.576a18.67,18.67,0,0,1-.5,2.894,1.317,1.317,0,0,1-.608,1.022,0.667,0.667,0,0,1-.515-0.184,2.749,2.749,0,0,1-.575-0.737Q4.6,41.444,4.412,41.1a5.666,5.666,0,0,0-.419-0.666,0.815,0.815,0,0,1,.419-0.612,0.827,0.827,0,0,0,.4-0.734,3.093,3.093,0,0,0-.3-0.721q-0.276-.539-0.815-1.391-0.42-.745-0.728-1.217a3.552,3.552,0,0,0-.546-0.686,2.579,2.579,0,0,0-.967-0.438A3.4,3.4,0,0,0,.2,34.609a0.738,0.738,0,0,0-.512.748,7.283,7.283,0,0,0,.086,2.008,4.823,4.823,0,0,0,.207.778q0.165,0.494.475,1.195a9.677,9.677,0,0,0,.583,1.221Q1.3,41,1.423,41.166A5.687,5.687,0,0,0,2,42.646q0.546,1.112,1.622,2.944a1.724,1.724,0,0,0,.833.738,2.215,2.215,0,0,0,1.2.125,4.018,4.018,0,0,0,.927-0.26,7.619,7.619,0,0,0,1-.5,4.339,4.339,0,0,0,.944-0.708,1.623,1.623,0,0,0,.425-0.715q0.324-1.332.443-2.075t0.137-.911q0-.394-0.011-0.931,0.2-1.025.339-1.8t0.18-1.322q0.229-1.132.381-2t0.232-1.464L10.5,33.331q0.261-1.053.371-1.723a7.194,7.194,0,0,0,.112-0.939,4.926,4.926,0,0,0-.014-0.734,3.615,3.615,0,0,1-.025-0.525q0.047-.67.088-1.173t0.048-.878q0.066-.258.107-0.472t0.079-.385a14.337,14.337,0,0,0,.365-3.255,26.284,26.284,0,0,0-.3-3.987,7,7,0,0,0-.557-2.095,0.843,0.843,0,0,0-.822-0.605q-0.283.186-.665,0.407a4.558,4.558,0,0,0-.439.323,1.867,1.867,0,0,0-.3.3q-0.346.464-.565,0.806a5.361,5.361,0,0,0-.847.506,1.511,1.511,0,0,0-.516.644A5.706,5.706,0,0,0,5.731,20.517Zm8.884,19.674a5.076,5.076,0,0,1,.394.709,2.637,2.637,0,0,1,.38-0.522,0.64,0.64,0,0,1,.343-0.206,0.466,0.466,0,0,1,.4.16,3.061,3.061,0,0,1,.441.609q0.3,0.515.564,0.881a2.414,2.414,0,0,0,.493.539,2.5,2.5,0,0,0,1.059.509,3.707,3.707,0,0,0,1.362.029,4.685,4.685,0,0,0,.971-0.235,2.351,2.351,0,0,0,.7-0.4,3.413,3.413,0,0,0,1.65-.832,12.4,12.4,0,0,0,1.85-2.022q-0.172-.327-0.443-0.764t-0.621-.987a2.437,2.437,0,0,1-.4.359q-0.207.144-.3,0.22a6.105,6.105,0,0,1-1.085.656,6.564,6.564,0,0,1-1.4.474,7.1,7.1,0,0,1-.875-0.1,1.974,1.974,0,0,1-.553-0.168,1.069,1.069,0,0,1-.507-0.423,1.769,1.769,0,0,1-.262-0.728,1.057,1.057,0,0,1,.035-0.471,1.275,1.275,0,0,1,.192-0.391,30.125,30.125,0,0,0,2.252-3.314,7.217,7.217,0,0,0,.949-2.439l0.088-.676q0.071-.508.109-0.741t0.056-.112q-0.153-.475-0.273-0.872a6.6,6.6,0,0,0-.369-0.754,1.785,1.785,0,0,0-.345-0.447,1.11,1.11,0,0,0-.568-0.269,2.775,2.775,0,0,0-.837.019,3.459,3.459,0,0,0-.661.159,4.671,4.671,0,0,0-.527.222,6.235,6.235,0,0,1-.474.442,4.516,4.516,0,0,0-.437.416q-0.384.637-.769,1.263t-0.743,1.155a16.171,16.171,0,0,0-.6,1.622q-0.217.716-.334,1.189-0.1.47-.173,0.875a6.045,6.045,0,0,0-.095.7,7.944,7.944,0,0,1,.036.813q0,0.4,0,.819a7.683,7.683,0,0,0-.842,1.045,5.316,5.316,0,0,0-.5.954Q14.348,39.774,14.616,40.191Zm5.068-8.5a0.549,0.549,0,0,1,.114.284,1.447,1.447,0,0,1-.039.586,2.254,2.254,0,0,1-.282.622l-0.349.517q-0.179.265-.372,0.5-0.092.221-.2,0.475a0.424,0.424,0,0,1-.331.287A0.316,0.316,0,0,1,18,34.939a0.241,0.241,0,0,1-.076-0.165,3.873,3.873,0,0,1,.5-1.824,2.145,2.145,0,0,1,1.027-1.342A0.239,0.239,0,0,1,19.684,31.689Zm4.826,7.056a5.071,5.071,0,0,1,.394.709,1.739,1.739,0,0,0,.21-0.4l0.086-.261q0.3-.375.533-0.679a4.227,4.227,0,0,1,.418-0.475,2.623,2.623,0,0,0,.407-0.474q0.294-.4.774-1.087a5.442,5.442,0,0,1,.689-0.888,1.038,1.038,0,0,1,.5-0.322,0.528,0.528,0,0,1,.336.034,0.274,0.274,0,0,1,.134.208,1.7,1.7,0,0,1,.009.341,3.092,3.092,0,0,1-.074.477q-0.059.3-.1,0.482a0.787,0.787,0,0,0-.03.284q-0.253,1.778-.452,3.113t-0.378,2.231q0.144,0.56.3,1.107a0.734,0.734,0,0,0,.964.429,2.837,2.837,0,0,0,.726-0.2,1.563,1.563,0,0,0,.552-0.4q0.228-.282.454-0.574T31.41,41.8q0.879-1.206,1.456-2.078a8.535,8.535,0,0,0,.789-1.4,1.217,1.217,0,0,1,.479-0.547A7.645,7.645,0,0,0,35.3,36.567a6.524,6.524,0,0,1,.708-0.746,3.161,3.161,0,0,1,.707-0.476l0.192,0.034q0.532,0.524.931,0.911a7.25,7.25,0,0,0,.7.613q0.419,0.6.727,1a2.94,2.94,0,0,0,.493.539,1.978,1.978,0,0,0,.82.5,2.053,2.053,0,0,0,1.709-.219A3.234,3.234,0,0,0,43.076,38q0.3-.334.624-0.692t0.624-.692L43.24,34.868a1.281,1.281,0,0,1-.351.362,1.106,1.106,0,0,1-.462.171,0.826,0.826,0,0,1-.663-0.214,2.841,2.841,0,0,1-.634-0.861q-0.522-1.022-1.112-2.221a2.46,2.46,0,0,0-.971-0.832,2.084,2.084,0,0,0-1.161-.141,2.256,2.256,0,0,0-.737.273,9.108,9.108,0,0,0-.919.59,10.346,10.346,0,0,0-.766.713,6.851,6.851,0,0,0-.549.64,4.685,4.685,0,0,0-.258.432,2.372,2.372,0,0,1-.175.295,4.837,4.837,0,0,0-.569.715,3.59,3.59,0,0,0-.378.749q-0.408.474-.693,0.858a2.816,2.816,0,0,0-.4.712q-0.1.16-.178,0.275a0.855,0.855,0,0,1-.169.191,0.55,0.55,0,0,1-.187-0.284,1.705,1.705,0,0,1,0-.31,2.166,2.166,0,0,1,.094-0.49q0.109-.389.232-0.822,0.413-2.278.565-3.647a8.888,8.888,0,0,0,.084-1.836,2.2,2.2,0,0,0-.539-1.279,1.274,1.274,0,0,0-1.142-.3,3.079,3.079,0,0,0-1.332.526,3.948,3.948,0,0,0-1.072,1.172q-0.56.849-.968,1.458t-0.683,1L26.073,34.4q-0.44.676-.746,1.135Q24.98,36,24.7,36.355t-0.459.544q-0.147.27-.254,0.462a2.983,2.983,0,0,0-.167.346Q24.243,38.328,24.511,38.745ZM44.3,35.853a5.071,5.071,0,0,1,.394.709,1.737,1.737,0,0,0,.21-0.4l0.086-.261q0.3-.375.533-0.679a4.22,4.22,0,0,1,.418-0.476,2.623,2.623,0,0,0,.407-0.474q0.294-.4.774-1.087a5.436,5.436,0,0,1,.689-0.888,1.036,1.036,0,0,1,.5-0.322A0.527,0.527,0,0,1,48.65,32a0.274,0.274,0,0,1,.134.208,1.7,1.7,0,0,1,.009.341,3.1,3.1,0,0,1-.074.477q-0.059.3-.1,0.482a0.787,0.787,0,0,0-.03.284q-0.253,1.778-.452,3.113t-0.378,2.231q0.144,0.56.3,1.107a0.734,0.734,0,0,0,.964.429,2.837,2.837,0,0,0,.726-0.2,1.56,1.56,0,0,0,.552-0.4q0.228-.282.454-0.574t0.451-.594q0.879-1.206,1.456-2.078a8.526,8.526,0,0,0,.789-1.4,1.217,1.217,0,0,1,.479-0.547,7.645,7.645,0,0,0,1.169-1.207,6.524,6.524,0,0,1,.708-0.746,3.16,3.16,0,0,1,.707-0.476L56.7,32.486q0.532,0.524.931,0.911a7.236,7.236,0,0,0,.7.613q0.419,0.6.727,1a2.933,2.933,0,0,0,.493.539,1.978,1.978,0,0,0,.819.5,2.054,2.054,0,0,0,1.709-.219,3.234,3.234,0,0,0,.785-0.726q0.3-.334.624-0.692t0.624-.692l-1.084-1.748a1.281,1.281,0,0,1-.351.362,1.105,1.105,0,0,1-.462.171,0.826,0.826,0,0,1-.663-0.214,2.844,2.844,0,0,1-.634-0.861q-0.522-1.022-1.112-2.221a2.459,2.459,0,0,0-.971-0.832,2.084,2.084,0,0,0-1.16-.141,2.259,2.259,0,0,0-.737.274,9.106,9.106,0,0,0-.919.59,10.347,10.347,0,0,0-.766.713,6.862,6.862,0,0,0-.549.64,4.7,4.7,0,0,0-.258.431,2.365,2.365,0,0,1-.175.295,4.842,4.842,0,0,0-.569.715,3.59,3.59,0,0,0-.378.75q-0.408.474-.693,0.858a2.816,2.816,0,0,0-.4.712q-0.1.16-.178,0.275a0.851,0.851,0,0,1-.169.19,0.55,0.55,0,0,1-.187-0.284,1.7,1.7,0,0,1,0-.31,2.167,2.167,0,0,1,.094-0.49q0.109-.389.232-0.822,0.413-2.278.565-3.647a8.888,8.888,0,0,0,.084-1.836,2.2,2.2,0,0,0-.539-1.279,1.275,1.275,0,0,0-1.142-.3,3.08,3.08,0,0,0-1.332.526,3.948,3.948,0,0,0-1.072,1.172q-0.56.849-.968,1.458t-0.683,1l-1.066,1.638q-0.44.676-.746,1.135-0.347.465-.627,0.817t-0.459.544q-0.147.27-.254,0.462a2.974,2.974,0,0,0-.167.346Q44.032,35.436,44.3,35.853Zm19.265-3.789a1.136,1.136,0,0,1,.134.208q0.234,0.463.439,0.806t0.346,0.592a12.343,12.343,0,0,1,1.148-1.5,1.628,1.628,0,0,1,.809-0.564,0.493,0.493,0,0,1,.339.189,4.814,4.814,0,0,1,.528.638q0.247,0.275.442,0.474a2.931,2.931,0,0,1,.3.35,5.793,5.793,0,0,0,1.565,2.2,4.428,4.428,0,0,0,2.457.076,2.284,2.284,0,0,0,.85-0.425A10.513,10.513,0,0,0,74.21,33.99q0.67-.658,1.148-1.152a9.32,9.32,0,0,0,.754-0.867l-1.085-1.748-0.581.634q-0.295.323-.561,0.631a2.7,2.7,0,0,1-.725.572,2.33,2.33,0,0,1-.732.242,1.252,1.252,0,0,1-.521-0.017,0.618,0.618,0,0,1-.347-0.25,3.671,3.671,0,0,1-.442-0.9q-0.323-.792-0.524-1.177Q70.418,29.321,70.2,28.7t-0.449-1.23a1.757,1.757,0,0,0-.8-0.97,2,2,0,0,0-1.249-.18,1.118,1.118,0,0,0-.507.219,1.3,1.3,0,0,0-.4.535,12.611,12.611,0,0,1-1.621,2.237,13.653,13.653,0,0,0-1.642,2.24l-0.031.212-0.1.16A0.563,0.563,0,0,1,63.565,32.063ZM68.8,14.873a1.761,1.761,0,0,0-.493.31q-0.387.616-.669,1.093a2.3,2.3,0,0,0-1.165,1.175,2.744,2.744,0,0,0-.517,1.64,3.237,3.237,0,0,0,.312,1.073,0.982,0.982,0,0,0,.5.487q0.3-.044.623-0.06t0.67-.025a0.977,0.977,0,0,0,.42-0.175,4.558,4.558,0,0,0,.715-0.571,3.47,3.47,0,0,0,.674-0.71,2.553,2.553,0,0,0,.383-0.854q0.051-.214.135-0.7t0.18-1.249q0.025-.4.064-0.983a0.746,0.746,0,0,0-.319-0.554,1.127,1.127,0,0,0-.77-0.095A2.81,2.81,0,0,0,68.8,14.873Zm7.163,16.373a7.663,7.663,0,0,1,.391.689l0.6,0.39q-0.022,1.413-.017,2.51t0.048,1.817q0.214,0.611.424,1.2a4.082,4.082,0,0,1,.012.724,4.034,4.034,0,0,0,.01.7l0.451,3.084a7.073,7.073,0,0,0,.2.955,5.69,5.69,0,0,0,.306.815q0.173,0.617.337,1.246t0.361,1.263a2.046,2.046,0,0,0,.889,1.051,2.3,2.3,0,0,0,1.446.182,1.094,1.094,0,0,0,.526-0.232,2.212,2.212,0,0,0,.447-0.49q0.127-.267.281-0.559a4.658,4.658,0,0,0,.258-0.576,18.768,18.768,0,0,0,1.288-4.095,65.679,65.679,0,0,0,1.047-6.733q0.062-.569.106-1.187t0.144-1.213a6.444,6.444,0,0,1,.247-1.29,5,5,0,0,1,.413-1q-0.19-.3-0.44-0.744t-0.644-1a11.678,11.678,0,0,0-.811,1.611,8.918,8.918,0,0,0-.509,1.691,10.52,10.52,0,0,0-.155,1.069q-0.112.939-.382,2.636a2.994,2.994,0,0,1-.147.768q-0.111.306-.165,0.5l0.12,0.4q-0.589,2.635-1.005,3.971a2.233,2.233,0,0,1-.7,1.377,0.348,0.348,0,0,1-.242-0.307,9.338,9.338,0,0,1-.273-0.945q-0.138-.519-0.23-1-0.187-1.278-.3-3.034t-0.151-4.009q-0.06-2.4.023-4.169a25.7,25.7,0,0,1,.282-2.963q0.152-.52.277-0.869a2.048,2.048,0,0,1,.246-0.513,5.158,5.158,0,0,0,.117-0.546,3.817,3.817,0,0,1,.077-0.395q0.27-.848.451-1.455t0.33-1q0.484-2.786.778-4.891t0.419-3.512q-0.076-2.787-.1-2.949-0.1-.71-0.2-1.152a4.916,4.916,0,0,0-.163-0.619,1.044,1.044,0,0,0-.525-0.618,1.547,1.547,0,0,0-.883-0.089,1.89,1.89,0,0,0-1.24.876,6.815,6.815,0,0,0-.922,2.2q-1,4.064-1.53,7.54a41.318,41.318,0,0,0-.51,6.437,9.491,9.491,0,0,1-.1,1.217,6.014,6.014,0,0,1-.3,1.163q-0.1.305-.35,0.87t-0.632,1.346q-0.147.27-.254,0.462a2.991,2.991,0,0,0-.167.346Q75.7,30.809,75.967,31.246Zm5.526-15.792a0.719,0.719,0,0,1,.111.336,1.688,1.688,0,0,1-.027.522,6.794,6.794,0,0,1-.2.775,8.516,8.516,0,0,0-.264.888,2.3,2.3,0,0,0-.064.693l-0.26.349-0.166-.142a2.179,2.179,0,0,1,.013-0.551q0.042-.348.139-0.818,0.126-.557.2-0.92a2.542,2.542,0,0,0,.062-0.569q0.06-.3.088-0.459a0.185,0.185,0,0,1,.15-0.177A0.22,0.22,0,0,1,81.493,15.454ZM85.859,29.78a5.073,5.073,0,0,1,.394.709,2.634,2.634,0,0,1,.38-0.522,0.639,0.639,0,0,1,.343-0.205,0.465,0.465,0,0,1,.4.16,3.057,3.057,0,0,1,.441.609q0.3,0.515.564,0.881a2.417,2.417,0,0,0,.493.539,2.505,2.505,0,0,0,1.059.509,3.709,3.709,0,0,0,1.362.029,4.694,4.694,0,0,0,.971-0.235,2.352,2.352,0,0,0,.7-0.4,3.414,3.414,0,0,0,1.651-.832A12.4,12.4,0,0,0,96.46,29q-0.172-.327-0.443-0.764T95.4,27.246a2.442,2.442,0,0,1-.4.36q-0.207.144-.3,0.22a6.114,6.114,0,0,1-1.085.656,6.567,6.567,0,0,1-1.4.474,7.123,7.123,0,0,1-.875-0.1,1.971,1.971,0,0,1-.553-0.168,1.069,1.069,0,0,1-.507-0.423,1.769,1.769,0,0,1-.262-0.729,1.057,1.057,0,0,1,.035-0.471,1.279,1.279,0,0,1,.192-0.391,30.128,30.128,0,0,0,2.252-3.314,7.218,7.218,0,0,0,.949-2.439l0.088-.676q0.07-.508.109-0.741t0.056-.112q-0.152-.475-0.273-0.872a6.577,6.577,0,0,0-.369-0.754,1.786,1.786,0,0,0-.345-0.447,1.11,1.11,0,0,0-.568-0.269,2.777,2.777,0,0,0-.837.019,3.454,3.454,0,0,0-.661.159,4.662,4.662,0,0,0-.527.222,6.256,6.256,0,0,1-.474.442,4.491,4.491,0,0,0-.437.416q-0.384.637-.769,1.263t-0.743,1.155a16.154,16.154,0,0,0-.6,1.622q-0.217.716-.334,1.189-0.1.47-.173,0.875a6.023,6.023,0,0,0-.095.7,7.943,7.943,0,0,1,.036.813q0,0.4,0,.819a7.688,7.688,0,0,0-.842,1.045,5.324,5.324,0,0,0-.5.954Q85.591,29.363,85.859,29.78Zm5.069-8.5a0.549,0.549,0,0,1,.114.284,1.446,1.446,0,0,1-.039.586,2.254,2.254,0,0,1-.282.622l-0.349.517q-0.179.265-.373,0.5-0.092.221-.2,0.475a0.424,0.424,0,0,1-.331.287,0.316,0.316,0,0,1-.22-0.02,0.241,0.241,0,0,1-.076-0.165,3.873,3.873,0,0,1,.5-1.824A2.144,2.144,0,0,1,90.7,21.2,0.239,0.239,0,0,1,90.927,21.277Zm4.72,6.9q0.27,0.427.5,0.87a1.735,1.735,0,0,0,.21-0.4l0.086-.261a8.17,8.17,0,0,0,.954-0.989,3.513,3.513,0,0,0,.488-0.776,3.676,3.676,0,0,0,.679-0.742,15.435,15.435,0,0,0,.88-1.351,8.591,8.591,0,0,1,.913-1.273,6.039,6.039,0,0,1,.873-0.832,1.3,1.3,0,0,1,1.1.5,3.312,3.312,0,0,1,.575,1.595,9.64,9.64,0,0,1,.054,2,19.762,19.762,0,0,1-.332,2.474,4.7,4.7,0,0,1-.162.594q-0.1.295-.186,0.576a5.117,5.117,0,0,0-.16.676,1.792,1.792,0,0,0-.015.531,0.891,0.891,0,0,0,.546.759,2.576,2.576,0,0,0,1.315.067,3.728,3.728,0,0,0,.871-0.563q1.406-1.158,2.407-2.041t1.616-1.49q0.284-.331.484-0.589t0.36-.446q-0.28-.5-0.572-0.932t-0.513-.816a3.174,3.174,0,0,1-.493.456A10.143,10.143,0,0,0,107,27.126a5.357,5.357,0,0,1-.7.755,1.242,1.242,0,0,1-.6.325,0.287,0.287,0,0,1-.2-0.033,0.2,0.2,0,0,1-.095-0.152,6.735,6.735,0,0,1,.3-2.375,6.754,6.754,0,0,0,.29-2.415,7.5,7.5,0,0,0-.789-2.558,3.7,3.7,0,0,0-1.463-1.506c-0.076-.044-0.195-0.1-0.358-0.176q-0.511-.381-1.047-0.717a1.761,1.761,0,0,0-1.227-.235,3.417,3.417,0,0,0-1.593.938,3.946,3.946,0,0,0-1.134,1.389l0.345,0.944a9.053,9.053,0,0,1-1.063,2.3,18.628,18.628,0,0,1-2.082,2.7q-0.256.515-.519,0.988Q95.378,27.746,95.648,28.173Zm43.918-7.382a7.423,7.423,0,0,1-.839,1.066,4.615,4.615,0,0,1-1.023.8,4.457,4.457,0,0,0-.33.5c-0.082.15-.15,0.278-0.2,0.382a1.954,1.954,0,0,0-.726.282,2.653,2.653,0,0,0-.727.7q-0.444.231-.757,0.422a2.979,2.979,0,0,0-.5.363q-1.125.393-1.769,0.59t-0.746.213a4.8,4.8,0,0,1-2.17-.17,6.4,6.4,0,0,1-2.063-1.139q-0.313-.161-0.657-0.381a1.06,1.06,0,0,1-.292-0.227,1.082,1.082,0,0,1-.2-0.282,5.516,5.516,0,0,0-.438-1.014,4.61,4.61,0,0,0-.524-0.752q-0.476-.552-0.7-0.84a1.182,1.182,0,0,1-.243-0.389l-0.067-1.876q-0.216-.486-0.488-1.069,0.081-1.007.1-1.745t0.026-1.237a15.358,15.358,0,0,1,.3-3.309,18.718,18.718,0,0,1,1.038-3.4,11.835,11.835,0,0,1,1.966-3.21,5.522,5.522,0,0,1,2.424-1.639l0.557-.227a6.428,6.428,0,0,0,.726-0.355q0.55,0.086,1.1.118c0.369,0.022.736,0.048,1.1,0.078a1.725,1.725,0,0,1,.917.529,1.816,1.816,0,0,1,.419.954,1.928,1.928,0,0,1-.14.943,4.419,4.419,0,0,1-.706,1.17,4.033,4.033,0,0,0-.274,1.087q-0.143.86-.279,2.331-0.135,1.346-.175,2.2a7.215,7.215,0,0,0,0,1.14q0.176,0.782.35,1.545a2.389,2.389,0,0,1-.009.436,2.206,2.206,0,0,0-.006.457,0.246,0.246,0,0,0,.217.207,1.944,1.944,0,0,0,.639-0.021q0.9-.38,1.676-0.7a1.347,1.347,0,0,0,.407-0.754,18.489,18.489,0,0,0,.464-1.923q0.245-1.155.389-1.933a4.789,4.789,0,0,0,.118-1.105q0.065-1.253.082-2.2t0.05-1.572a5.813,5.813,0,0,0-.051-0.77q-0.061-.561-0.2-1.494a9.368,9.368,0,0,0-.83-2.987,1.744,1.744,0,0,0-1.378-1.063l-0.667-.027a2.643,2.643,0,0,0-1.1-.265,8.192,8.192,0,0,0-1.6.1A8.867,8.867,0,0,0,130,.012a6.081,6.081,0,0,0-1.535.846q-0.179.192-.31,0.356a1.71,1.71,0,0,1-.224.24l-0.64.446c-0.175.123-.327,0.221-0.454,0.294q-0.6.751-1.031,1.239a6.759,6.759,0,0,1-.752.742q-0.309.439-.525,0.8t-0.37.593q-0.711.954-1.237,1.818a10.019,10.019,0,0,0-.825,1.654q-0.328,1.022-.646,2.1t-0.64,2.145a4.731,4.731,0,0,0-.123.5,1.2,1.2,0,0,0-.016.386l0.126,0.438a8.947,8.947,0,0,1-.171.958q-0.1.43-.2,0.734,0.034,1.508.054,2.355c0.014,0.565.028,0.9,0.044,1.009a1.784,1.784,0,0,0,.16.453q0.135,0.291.366,0.734l-0.09.946a2.6,2.6,0,0,0,.226.692q0.222,0.527.637,1.378l0.8,1.665a4.58,4.58,0,0,0,.683.916,8.375,8.375,0,0,0,1.153,1.013,7.747,7.747,0,0,0,1.315.844,1.941,1.941,0,0,0,.98.251l0.6,0,0.279,0.208a3.438,3.438,0,0,1,.627.033q0.38,0.048.928,0.113c0.3,0.04.573,0.072,0.833,0.1a2.929,2.929,0,0,0,.693-0.008,10.614,10.614,0,0,0,1.882-.451,7.46,7.46,0,0,0,1.684-.816,13.421,13.421,0,0,0,1.311-.886q0.775-.58,1.779-1.369,1.111-.908,1.925-1.649t1.355-1.3q-0.015-.1-1.085-1.748h0Z"/>
</svg>
